# xmcd
#
# Track frame offsets:
# 150
# 6157
# 20670
# 35871
# 47813
# 61189
# 73940
# 86982
# 96404
# 103153
#
# Disc length: 1511 seconds
#
#
# Revision: 0
# Processed by: cddbd v1.5.2PL0 Copyright (c) Steve Scherf et al.
# Submitted via: FreeRIP 2.944 
#
DISCID=9105e50a
DTITLE=Nasty - Aggression
DYEAR=2008
DGENRE=
TTITLE0=One Voice
TTITLE1=Aggression
TTITLE2=Rockets with a Message
TTITLE3=Your Game
TTITLE4=Generation Fuck
TTITLE5=As the Blood runs cold
TTITLE6=Strong 'n cute
TTITLE7=Skeletal
TTITLE8=Kid's World
TTITLE9=Imagine
EXTD=Good Life Recordings
EXTT0=
EXTT1=
EXTT2=
EXTT3=
EXTT4=
EXTT5=
EXTT6=
EXTT7=
EXTT8=
EXTT9=
PLAYORDER=
